# xmcd
#
# Track frame offsets:
#  150
#  3950
#  8987
#  25230
#  39197
#  55222
#  77120
#  96117
#  117900
#  130490
#  143507
#  155870
#  167942
#  185852
#  201015
#
# Disc length: 2935 seconds
#
# Revision: 0
# Processed by: cddbd v1.5.1PL2 Copyright (c) Steve Scherf et al.
# Submitted via: Collectorz.com_Music_Collector 6.9
#
DISCID=c70b750f
DTITLE=Decade - Songs From the Hermit Trail
DYEAR=1996
DGENRE=Group Vocal
TTITLE0=Intro
TTITLE1=Long Way Home (part 2)
TTITLE2=You Can't Say
TTITLE3=I Feel Fine
TTITLE4=The Hermit Trail
TTITLE5=A Good Day For Dying
TTITLE6=Woman
TTITLE7=Tidal Waves
TTITLE8=Echoes
TTITLE9=Pier 39
TTITLE10=Getting Out of Delta
TTITLE11=Sailor Song
TTITLE12=Lonley Days
TTITLE13=Drinking Jack
TTITLE14=New Years Day
EXTD=
EXTT0=
EXTT1=
EXTT2=
EXTT3=
EXTT4=
EXTT5=
EXTT6=
EXTT7=
EXTT8=
EXTT9=
EXTT10=
EXTT11=
EXTT12=
EXTT13=
EXTT14=
PLAYORDER=
